<svg id="Capa_1" data-name="Capa 1" xmlns="http://www.w3.org/2000/svg" viewBox="0 0 97.37 587.37"><defs><style>.cls-1,.cls-2,.cls-3,.cls-4,.cls-6,.cls-7,.cls-8{fill:#fff;}.cls-1{opacity:0.9;}.cls-3{opacity:0.6;}.cls-4{opacity:0.8;}.cls-5{fill:none;stroke:#fff;stroke-miterlimit:10;}.cls-6{opacity:0.3;}.cls-7{opacity:0.55;}.cls-8{opacity:0.4;}</style></defs><title>anuncios</title><path class="cls-1" d="M-2011.39,1809.26l-.9,2.51h-1.2l3.24-8.61h1.32l3.12,8.61h-1.27l-.85-2.51Zm3-1-1.27-3.79h0l-1.38,3.79Z" transform="translate(2017.5 -1800.63)"/><path class="cls-1" d="M-1997.81,1812.44l-1.32-1a4,4,0,0,1-2.21.58c-3.22,0-4.2-2.68-4.2-4.54s1-4.53,4.2-4.53,4.19,2.68,4.19,4.53a4.86,4.86,0,0,1-1.24,3.37l1.17.92Zm-2.57-3.16,1.09.85a3.72,3.72,0,0,0,.94-2.67c0-2-1.12-3.5-3-3.5s-3,1.48-3,3.5,1.12,3.51,3,3.51a2.83,2.83,0,0,0,1.27-.28l-.9-.69Z" transform="translate(2017.5 -1800.63)"/><path class="cls-1" d="M-1989.07,1803.16v5.59a3.13,3.13,0,0,1-3.47,3.25,3,3,0,0,1-3.31-3.1v-5.74h1.17v5.42c0,1.87,1.14,2.39,2.18,2.39a2.1,2.1,0,0,0,2.27-2.37v-5.44Z" transform="translate(2017.5 -1800.63)"/><path class="cls-1" d="M-1985.88,1811.77H-1987v-8.61h1.16Zm-.31-9.45h-.8l1.07-1.69h1.29Z" transform="translate(2017.5 -1800.63)"/><path class="cls-1" d="M-1974.07,1811.77h-6.36v-8.61h6.28v1h-5.11v2.64h4.71v1h-4.71v2.88h5.19Z" transform="translate(2017.5 -1800.63)"/><path class="cls-1" d="M-1967.35,1805.68a1.88,1.88,0,0,0-2.13-1.75c-.74,0-2,.2-2,1.51,0,.73.51,1,1,1.09l2.46.56a2.25,2.25,0,0,1,2,2.31c0,2-1.89,2.6-3.37,2.6a3.4,3.4,0,0,1-2.6-.83,2.66,2.66,0,0,1-.88-2.18h1.09c0,1.56,1.28,2,2.38,2,.84,0,2.25-.21,2.25-1.45,0-.9-.42-1.19-1.83-1.52l-1.76-.41a2.07,2.07,0,0,1-1.84-2,2.64,2.64,0,0,1,3-2.66c3,0,3.31,1.8,3.36,2.75Z" transform="translate(2017.5 -1800.63)"/><path class="cls-1" d="M-1965.52,1803.16h7v1h-2.91v7.58h-1.17v-7.58h-2.91Z" transform="translate(2017.5 -1800.63)"/><path class="cls-1" d="M-1957.53,1809.26l-.9,2.51h-1.2l3.24-8.61h1.32l3.12,8.61h-1.28l-.85-2.51Zm3-1-1.27-3.79h0l-1.38,3.79Z" transform="translate(2017.5 -1800.63)"/><path class="cls-1" d="M-1949.58,1811.77h-1.16v-8.61h4c1.42,0,2.83.49,2.83,2.31a2.12,2.12,0,0,1-1.2,2.07c.5.2,1,.42,1,1.62l.07,1.55c0,.49.07.67.43.87v.19H-1945a10.37,10.37,0,0,1-.2-2.16c0-.71-.15-1.53-1.54-1.53h-2.82Zm0-4.69h2.7c.85,0,1.75-.21,1.75-1.49s-1-1.44-1.54-1.44h-2.91Z" transform="translate(2017.5 -1800.63)"/><path class="cls-1" d="M-1940.88,1811.77H-1942v-8.61h1.16Zm-.31-9.45h-.8l1.07-1.69h1.29Z" transform="translate(2017.5 -1800.63)"/><path class="cls-1" d="M-1937.53,1809.26l-.9,2.51h-1.2l3.24-8.61h1.32l3.12,8.61h-1.27l-.85-2.51Zm3-1-1.27-3.79h0l-1.38,3.79Z" transform="translate(2017.5 -1800.63)"/><path class="cls-1" d="M-1925.17,1803.16h1.13v8.61h-1.31l-4.38-7h0v7h-1.13v-8.61h1.38l4.31,7h0Z" transform="translate(2017.5 -1800.63)"/><path class="cls-2" d="M-2014.13,1826.77H-2017l4.61-12.93h3.11l4.56,12.93h-2.94l-.83-2.66h-4.77Zm1.62-4.9h3.3l-1.6-5.11h0Z" transform="translate(2017.5 -1800.63)"/><path class="cls-2" d="M-1994.81,1813.84h2.52v12.93h-2.7l-5.28-9.22h0v9.22h-2.52v-12.93h2.84l5.13,9h0Z" transform="translate(2017.5 -1800.63)"/><path class="cls-2" d="M-1979.08,1822.25c0,3.4-2.05,4.86-5.31,4.86a5.58,5.58,0,0,1-4.11-1.56,4.71,4.71,0,0,1-1-3.14v-8.57h2.75v8.39c0,1.8,1,2.6,2.31,2.6,1.85,0,2.61-.9,2.61-2.47v-8.52h2.75Z" transform="translate(2017.5 -1800.63)"/><path class="cls-2" d="M-1968.28,1813.84h2.52v12.93h-2.7l-5.28-9.22h0v9.22h-2.52v-12.93h2.84l5.13,9h0Z" transform="translate(2017.5 -1800.63)"/><path class="cls-2" d="M-1954.65,1818.07a2.64,2.64,0,0,0-2.87-2.23c-1.29,0-3.2.87-3.2,4.52,0,2.32.92,4.41,3.2,4.41a2.76,2.76,0,0,0,2.87-2.43h2.7a5.38,5.38,0,0,1-5.62,4.77c-3.44,0-5.91-2.32-5.91-6.79s2.61-6.82,5.94-6.82c3.88,0,5.44,2.67,5.59,4.57Z" transform="translate(2017.5 -1800.63)"/><path class="cls-2" d="M-1947.15,1826.77h-2.7v-12.93h2.7Z" transform="translate(2017.5 -1800.63)"/><path class="cls-2" d="M-1938.73,1813.5c1.72,0,6.22.74,6.22,6.81s-4.5,6.8-6.22,6.8-6.21-.74-6.21-6.8S-1940.44,1813.5-1938.73,1813.5Zm0,11.33c1.46,0,3.52-.9,3.52-4.52s-2.06-4.52-3.52-4.52-3.51.9-3.51,4.52S-1940.18,1824.83-1938.73,1824.83Z" transform="translate(2017.5 -1800.63)"/><path class="cls-2" d="M-1928.16,1822.79c0,.72.38,2.09,2.74,2.09,1.27,0,2.7-.31,2.7-1.67,0-1-1-1.28-2.34-1.61l-1.39-.32c-2.09-.49-4.11-1-4.11-3.8,0-1.44.78-4,5-4,4,0,5,2.59,5,4.18h-2.6c-.07-.58-.29-2-2.64-2-1,0-2.25.38-2.25,1.55,0,1,.82,1.23,1.36,1.35l3.15.78c1.77.43,3.39,1.15,3.39,3.47,0,3.89-4,4.23-5.1,4.23-4.71,0-5.52-2.72-5.52-4.32Z" transform="translate(2017.5 -1800.63)"/><path class="cls-3" d="M-1997,1830.63v-.4h.62v-.66c0-.65.24-1.07.88-1.07a2.38,2.38,0,0,1,.39,0v.44a1.35,1.35,0,0,0-.28,0c-.5,0-.51.41-.51.79v.51h.79v.4h-.79v3.74h-.48v-3.74Z" transform="translate(2017.5 -1800.63)"/><path class="cls-3" d="M-1993.45,1834.37h-.48v-4.14h.48v.77h0a1.25,1.25,0,0,1,1.35-.88v.52c-1.08,0-1.37.77-1.37,1.7Z" transform="translate(2017.5 -1800.63)"/><path class="cls-3" d="M-1988.94,1832a2.73,2.73,0,0,0,.63-.14c.16-.07.17-.29.17-.43,0-.49-.28-.84-1-.84s-1.12.21-1.2.93h-.49c.07-1,.8-1.36,1.7-1.36s1.5.32,1.5,1.28v2.26c0,.37.1.46.51.32v.37a1.14,1.14,0,0,1-.38.08.71.71,0,0,1-.21,0c-.32-.05-.38-.33-.39-.62a2,2,0,0,1-1.54.69,1.23,1.23,0,0,1-1.38-1.19c0-.7.48-1.12,1.44-1.25Zm.8.24a4.06,4.06,0,0,1-1.24.23c-.72,0-1.16.32-1.16.88a.79.79,0,0,0,.89.74c.76,0,1.51-.37,1.51-1.21Z" transform="translate(2017.5 -1800.63)"/><path class="cls-3" d="M-1985.54,1834.37h-.48v-4.14h.48v.62h0a1.43,1.43,0,0,1,1.28-.73,1.14,1.14,0,0,1,1.22.8,1.43,1.43,0,0,1,1.35-.8c1.13,0,1.29.8,1.29,1.64v2.61h-.48v-2.86c0-.59-.21-1-.89-1a1.16,1.16,0,0,0-.94.47,2.14,2.14,0,0,0-.27,1.12v2.23h-.48v-2.86c0-.59-.21-1-.88-1a1.15,1.15,0,0,0-.94.47,2,2,0,0,0-.27,1.12Z" transform="translate(2017.5 -1800.63)"/><path class="cls-3" d="M-1978.56,1832.41a1.43,1.43,0,0,0,1.39,1.64,1.22,1.22,0,0,0,1.26-1h.53a1.73,1.73,0,0,1-1.79,1.38c-1.32,0-1.9-.94-1.9-2.16a2,2,0,0,1,1.9-2.2c1.14,0,1.83.8,1.83,2.29Zm2.7-.4a1.3,1.3,0,0,0-1.31-1.46,1.46,1.46,0,0,0-1.39,1.46Z" transform="translate(2017.5 -1800.63)"/><path class="cls-3" d="M-1968.1,1828.61h.48v5.76h-.48v-.73h0a1.65,1.65,0,0,1-1.44.84c-1.33,0-1.87-1-1.87-2.17s.58-2.19,1.85-2.19a1.74,1.74,0,0,1,1.48.77Zm-1.4,1.94c-1,0-1.46.84-1.42,1.88a1.44,1.44,0,0,0,1.42,1.62c.9,0,1.4-.77,1.4-1.77A1.54,1.54,0,0,0-1969.5,1830.55Z" transform="translate(2017.5 -1800.63)"/><path class="cls-3" d="M-1965.68,1832.41a1.43,1.43,0,0,0,1.39,1.64,1.21,1.21,0,0,0,1.26-1h.53a1.72,1.72,0,0,1-1.79,1.38c-1.32,0-1.9-.94-1.9-2.16a2,2,0,0,1,1.9-2.2c1.14,0,1.83.8,1.83,2.29Zm2.71-.4a1.31,1.31,0,0,0-1.32-1.46,1.46,1.46,0,0,0-1.39,1.46Z" transform="translate(2017.5 -1800.63)"/><path class="cls-3" d="M-1960.58,1834.37h-.48v-4.14h.48v.77h0a1.26,1.26,0,0,1,1.36-.88v.52c-1.08,0-1.37.77-1.37,1.7Z" transform="translate(2017.5 -1800.63)"/><path class="cls-3" d="M-1957.83,1832.41a1.43,1.43,0,0,0,1.39,1.64,1.22,1.22,0,0,0,1.26-1h.53a1.73,1.73,0,0,1-1.79,1.38c-1.33,0-1.9-.94-1.9-2.16a2,2,0,0,1,1.9-2.2c1.14,0,1.83.8,1.83,2.29Zm2.7-.4a1.3,1.3,0,0,0-1.31-1.46c-.85,0-1.29.68-1.39,1.46Z" transform="translate(2017.5 -1800.63)"/><path class="cls-3" d="M-1950.3,1831.53a1.22,1.22,0,0,0-1.23-1c-1,0-1.39.89-1.39,1.76s.39,1.74,1.39,1.74a1.21,1.21,0,0,0,1.27-1.11h.51a1.7,1.7,0,0,1-1.78,1.54c-1.32,0-1.91-1-1.91-2.17a2,2,0,0,1,1.91-2.19,1.55,1.55,0,0,1,1.72,1.41Z" transform="translate(2017.5 -1800.63)"/><path class="cls-3" d="M-1948.35,1834.37v-5.76h.48v2.19a1.77,1.77,0,0,1,1.34-.68,1.45,1.45,0,0,1,1.26.59,1.57,1.57,0,0,1,.21,1v2.71h-.48v-2.7c0-.75-.31-1.12-1.07-1.12a1.21,1.21,0,0,0-1.16.81,2.23,2.23,0,0,0-.1.78v2.23Z" transform="translate(2017.5 -1800.63)"/><path class="cls-3" d="M-1943.73,1832.3a1.93,1.93,0,0,1,1.92-2.18,1.92,1.92,0,0,1,1.92,2.18,1.94,1.94,0,0,1-1.92,2.18A1.93,1.93,0,0,1-1943.73,1832.3Zm1.92-1.75c-1,0-1.41.85-1.41,1.75s.49,1.75,1.41,1.75,1.4-.86,1.4-1.75S-1940.8,1830.55-1941.81,1830.55Z" transform="translate(2017.5 -1800.63)"/><path class="cls-1" d="M-2011.39,1935.26l-.9,2.51h-1.2l3.24-8.61h1.32l3.12,8.61h-1.27l-.85-2.51Zm3-1-1.27-3.79h0l-1.38,3.79Z" transform="translate(2017.5 -1800.63)"/><path class="cls-1" d="M-1997.81,1938.44l-1.32-1a4,4,0,0,1-2.21.58c-3.22,0-4.2-2.68-4.2-4.54s1-4.53,4.2-4.53,4.19,2.68,4.19,4.53a4.86,4.86,0,0,1-1.24,3.37l1.17.92Zm-2.57-3.16,1.09.85a3.72,3.72,0,0,0,.94-2.67c0-2-1.12-3.5-3-3.5s-3,1.48-3,3.5,1.12,3.51,3,3.51a2.83,2.83,0,0,0,1.27-.28l-.9-.69Z" transform="translate(2017.5 -1800.63)"/><path class="cls-1" d="M-1989.07,1929.16v5.59a3.13,3.13,0,0,1-3.47,3.25,3,3,0,0,1-3.31-3.1v-5.74h1.17v5.42c0,1.87,1.14,2.39,2.18,2.39a2.1,2.1,0,0,0,2.27-2.37v-5.44Z" transform="translate(2017.5 -1800.63)"/><path class="cls-1" d="M-1985.88,1937.77H-1987v-8.61h1.16Zm-.31-9.45h-.8l1.07-1.69h1.29Z" transform="translate(2017.5 -1800.63)"/><path class="cls-1" d="M-1974.07,1937.77h-6.36v-8.61h6.28v1h-5.11v2.64h4.71v1h-4.71v2.88h5.19Z" transform="translate(2017.5 -1800.63)"/><path class="cls-1" d="M-1967.35,1931.68a1.88,1.88,0,0,0-2.13-1.75c-.74,0-2,.2-2,1.51,0,.73.51,1,1,1.09l2.46.56a2.25,2.25,0,0,1,2,2.31c0,2-1.89,2.6-3.37,2.6a3.4,3.4,0,0,1-2.6-.83,2.66,2.66,0,0,1-.88-2.18h1.09c0,1.56,1.28,2,2.38,2,.84,0,2.25-.21,2.25-1.45,0-.9-.42-1.19-1.83-1.52l-1.76-.41a2.07,2.07,0,0,1-1.84-2,2.64,2.64,0,0,1,3-2.66c3,0,3.31,1.8,3.36,2.75Z" transform="translate(2017.5 -1800.63)"/><path class="cls-1" d="M-1965.52,1929.16h7v1h-2.91v7.58h-1.17v-7.58h-2.91Z" transform="translate(2017.5 -1800.63)"/><path class="cls-1" d="M-1957.53,1935.26l-.9,2.51h-1.2l3.24-8.61h1.32l3.12,8.61h-1.28l-.85-2.51Zm3-1-1.27-3.79h0l-1.38,3.79Z" transform="translate(2017.5 -1800.63)"/><path class="cls-1" d="M-1949.58,1937.77h-1.16v-8.61h4c1.42,0,2.83.49,2.83,2.31a2.12,2.12,0,0,1-1.2,2.07c.5.2,1,.42,1,1.62l.07,1.55c0,.49.07.67.43.87v.19H-1945a10.37,10.37,0,0,1-.2-2.16c0-.71-.15-1.53-1.54-1.53h-2.82Zm0-4.69h2.7c.85,0,1.75-.21,1.75-1.49s-1-1.44-1.54-1.44h-2.91Z" transform="translate(2017.5 -1800.63)"/><path class="cls-1" d="M-1940.88,1937.77H-1942v-8.61h1.16Zm-.31-9.45h-.8l1.07-1.69h1.29Z" transform="translate(2017.5 -1800.63)"/><path class="cls-1" d="M-1937.53,1935.26l-.9,2.51h-1.2l3.24-8.61h1.32l3.12,8.61h-1.27l-.85-2.51Zm3-1-1.27-3.79h0l-1.38,3.79Z" transform="translate(2017.5 -1800.63)"/><path class="cls-1" d="M-1925.17,1929.16h1.13v8.61h-1.31l-4.38-7h0v7h-1.13v-8.61h1.38l4.31,7h0Z" transform="translate(2017.5 -1800.63)"/><path class="cls-2" d="M-2014.13,1952.77H-2017l4.61-12.93h3.11l4.56,12.93h-2.94l-.83-2.66h-4.77Zm1.62-4.9h3.3l-1.6-5.11h0Z" transform="translate(2017.5 -1800.63)"/><path class="cls-2" d="M-1994.81,1939.84h2.52v12.93h-2.7l-5.28-9.22h0v9.22h-2.52v-12.93h2.84l5.13,9h0Z" transform="translate(2017.5 -1800.63)"/><path class="cls-2" d="M-1979.08,1948.25c0,3.4-2.05,4.86-5.31,4.86a5.58,5.58,0,0,1-4.11-1.56,4.71,4.71,0,0,1-1-3.14v-8.57h2.75v8.39c0,1.8,1,2.6,2.31,2.6,1.85,0,2.61-.9,2.61-2.47v-8.52h2.75Z" transform="translate(2017.5 -1800.63)"/><path class="cls-2" d="M-1968.28,1939.84h2.52v12.93h-2.7l-5.28-9.22h0v9.22h-2.52v-12.93h2.84l5.13,9h0Z" transform="translate(2017.5 -1800.63)"/><path class="cls-2" d="M-1954.65,1944.07a2.64,2.64,0,0,0-2.87-2.23c-1.29,0-3.2.87-3.2,4.52,0,2.32.92,4.41,3.2,4.41a2.76,2.76,0,0,0,2.87-2.43h2.7a5.38,5.38,0,0,1-5.62,4.77c-3.44,0-5.91-2.32-5.91-6.79s2.61-6.82,5.94-6.82c3.88,0,5.44,2.67,5.59,4.57Z" transform="translate(2017.5 -1800.63)"/><path class="cls-2" d="M-1947.15,1952.77h-2.7v-12.93h2.7Z" transform="translate(2017.5 -1800.63)"/><path class="cls-2" d="M-1938.73,1939.5c1.72,0,6.22.74,6.22,6.81s-4.5,6.8-6.22,6.8-6.21-.74-6.21-6.8S-1940.44,1939.5-1938.73,1939.5Zm0,11.33c1.46,0,3.52-.9,3.52-4.52s-2.06-4.52-3.52-4.52-3.51.9-3.51,4.52S-1940.18,1950.83-1938.73,1950.83Z" transform="translate(2017.5 -1800.63)"/><path class="cls-2" d="M-1928.16,1948.79c0,.72.38,2.09,2.74,2.09,1.27,0,2.7-.31,2.7-1.67,0-1-1-1.28-2.34-1.61l-1.39-.32c-2.09-.49-4.11-1-4.11-3.8,0-1.44.78-4,5-4,4,0,5,2.59,5,4.18h-2.6c-.07-.58-.29-2-2.64-2-1,0-2.25.38-2.25,1.55,0,1,.82,1.23,1.36,1.35l3.15.78c1.77.43,3.39,1.15,3.39,3.47,0,3.89-4,4.23-5.1,4.23-4.71,0-5.52-2.72-5.52-4.32Z" transform="translate(2017.5 -1800.63)"/><path class="cls-3" d="M-1997,1956.63v-.4h.62v-.66c0-.65.24-1.07.88-1.07a2.38,2.38,0,0,1,.39,0v.44a1.35,1.35,0,0,0-.28,0c-.5,0-.51.41-.51.79v.51h.79v.4h-.79v3.74h-.48v-3.74Z" transform="translate(2017.5 -1800.63)"/><path class="cls-3" d="M-1993.45,1960.37h-.48v-4.14h.48v.77h0a1.25,1.25,0,0,1,1.35-.88v.52c-1.08,0-1.37.77-1.37,1.7Z" transform="translate(2017.5 -1800.63)"/><path class="cls-3" d="M-1988.94,1958a2.73,2.73,0,0,0,.63-.14c.16-.07.17-.29.17-.43,0-.49-.28-.84-1-.84s-1.12.21-1.2.93h-.49c.07-1,.8-1.36,1.7-1.36s1.5.32,1.5,1.28v2.26c0,.37.1.46.51.32v.37a1.14,1.14,0,0,1-.38.08.71.71,0,0,1-.21,0c-.32-.05-.38-.33-.39-.62a2,2,0,0,1-1.54.69,1.23,1.23,0,0,1-1.38-1.19c0-.7.48-1.12,1.44-1.25Zm.8.24a4.06,4.06,0,0,1-1.24.23c-.72,0-1.16.32-1.16.88a.79.79,0,0,0,.89.74c.76,0,1.51-.37,1.51-1.21Z" transform="translate(2017.5 -1800.63)"/><path class="cls-3" d="M-1985.54,1960.37h-.48v-4.14h.48v.62h0a1.43,1.43,0,0,1,1.28-.73,1.14,1.14,0,0,1,1.22.8,1.43,1.43,0,0,1,1.35-.8c1.13,0,1.29.8,1.29,1.64v2.61h-.48v-2.86c0-.59-.21-1-.89-1a1.16,1.16,0,0,0-.94.47,2.14,2.14,0,0,0-.27,1.12v2.23h-.48v-2.86c0-.59-.21-1-.88-1a1.15,1.15,0,0,0-.94.47,2,2,0,0,0-.27,1.12Z" transform="translate(2017.5 -1800.63)"/><path class="cls-3" d="M-1978.56,1958.41a1.43,1.43,0,0,0,1.39,1.64,1.22,1.22,0,0,0,1.26-1h.53a1.73,1.73,0,0,1-1.79,1.38c-1.32,0-1.9-.94-1.9-2.16a2,2,0,0,1,1.9-2.2c1.14,0,1.83.8,1.83,2.29Zm2.7-.4a1.3,1.3,0,0,0-1.31-1.46,1.46,1.46,0,0,0-1.39,1.46Z" transform="translate(2017.5 -1800.63)"/><path class="cls-3" d="M-1968.1,1954.61h.48v5.76h-.48v-.73h0a1.65,1.65,0,0,1-1.44.84c-1.33,0-1.87-1-1.87-2.17s.58-2.19,1.85-2.19a1.74,1.74,0,0,1,1.48.77Zm-1.4,1.94c-1,0-1.46.84-1.42,1.88a1.44,1.44,0,0,0,1.42,1.62c.9,0,1.4-.77,1.4-1.77A1.54,1.54,0,0,0-1969.5,1956.55Z" transform="translate(2017.5 -1800.63)"/><path class="cls-3" d="M-1965.68,1958.41a1.43,1.43,0,0,0,1.39,1.64,1.21,1.21,0,0,0,1.26-1h.53a1.72,1.72,0,0,1-1.79,1.38c-1.32,0-1.9-.94-1.9-2.16a2,2,0,0,1,1.9-2.2c1.14,0,1.83.8,1.83,2.29Zm2.71-.4a1.31,1.31,0,0,0-1.32-1.46,1.46,1.46,0,0,0-1.39,1.46Z" transform="translate(2017.5 -1800.63)"/><path class="cls-3" d="M-1960.58,1960.37h-.48v-4.14h.48v.77h0a1.26,1.26,0,0,1,1.36-.88v.52c-1.08,0-1.37.77-1.37,1.7Z" transform="translate(2017.5 -1800.63)"/><path class="cls-3" d="M-1957.83,1958.41a1.43,1.43,0,0,0,1.39,1.64,1.22,1.22,0,0,0,1.26-1h.53a1.73,1.73,0,0,1-1.79,1.38c-1.33,0-1.9-.94-1.9-2.16a2,2,0,0,1,1.9-2.2c1.14,0,1.83.8,1.83,2.29Zm2.7-.4a1.3,1.3,0,0,0-1.31-1.46c-.85,0-1.29.68-1.39,1.46Z" transform="translate(2017.5 -1800.63)"/><path class="cls-3" d="M-1950.3,1957.53a1.22,1.22,0,0,0-1.23-1c-1,0-1.39.89-1.39,1.76s.39,1.74,1.39,1.74a1.21,1.21,0,0,0,1.27-1.11h.51a1.7,1.7,0,0,1-1.78,1.54c-1.32,0-1.91-1-1.91-2.17a2,2,0,0,1,1.91-2.19,1.55,1.55,0,0,1,1.72,1.41Z" transform="translate(2017.5 -1800.63)"/><path class="cls-3" d="M-1948.35,1960.37v-5.76h.48v2.19a1.77,1.77,0,0,1,1.34-.68,1.45,1.45,0,0,1,1.26.59,1.57,1.57,0,0,1,.21,1v2.71h-.48v-2.7c0-.75-.31-1.12-1.07-1.12a1.21,1.21,0,0,0-1.16.81,2.23,2.23,0,0,0-.1.78v2.23Z" transform="translate(2017.5 -1800.63)"/><path class="cls-3" d="M-1943.73,1958.3a1.93,1.93,0,0,1,1.92-2.18,1.92,1.92,0,0,1,1.92,2.18,1.94,1.94,0,0,1-1.92,2.18A1.93,1.93,0,0,1-1943.73,1958.3Zm1.92-1.75c-1,0-1.41.85-1.41,1.75s.49,1.75,1.41,1.75,1.4-.86,1.4-1.75S-1940.8,1956.55-1941.81,1956.55Z" transform="translate(2017.5 -1800.63)"/><path class="cls-3" d="M40.94,46.37h6.51a0,0,0,0,1,0,0v6.51A4.49,4.49,0,0,1,43,57.37H36.45a0,0,0,0,1,0,0V50.86A4.49,4.49,0,0,1,40.94,46.37Z"/><path class="cls-4" d="M47.94,62.37h6.51a0,0,0,0,1,0,0v6.51A4.49,4.49,0,0,1,50,73.37H43.45a0,0,0,0,1,0,0V66.86A4.49,4.49,0,0,1,47.94,62.37Z"/><path class="cls-1" d="M54.94,78.37h6.51a0,0,0,0,1,0,0v6.51A4.49,4.49,0,0,1,57,89.37H50.45a0,0,0,0,1,0,0V82.86A4.49,4.49,0,0,1,54.94,78.37Z"/><path class="cls-1" d="M-2011.39,2123.26l-.9,2.51h-1.2l3.24-8.61h1.32l3.12,8.61h-1.27l-.85-2.51Zm3-1-1.27-3.79h0l-1.38,3.79Z" transform="translate(2017.5 -1800.63)"/><path class="cls-1" d="M-1997.81,2126.44l-1.32-1a4,4,0,0,1-2.21.58c-3.22,0-4.2-2.68-4.2-4.54s1-4.53,4.2-4.53,4.19,2.68,4.19,4.53a4.86,4.86,0,0,1-1.24,3.37l1.17.92Zm-2.57-3.16,1.09.85a3.72,3.72,0,0,0,.94-2.67c0-2-1.12-3.5-3-3.5s-3,1.48-3,3.5,1.12,3.51,3,3.51a2.83,2.83,0,0,0,1.27-.28l-.9-.69Z" transform="translate(2017.5 -1800.63)"/><path class="cls-1" d="M-1989.07,2117.16v5.59a3.13,3.13,0,0,1-3.47,3.25,3,3,0,0,1-3.31-3.1v-5.74h1.17v5.42c0,1.87,1.14,2.39,2.18,2.39a2.1,2.1,0,0,0,2.27-2.37v-5.44Z" transform="translate(2017.5 -1800.63)"/><path class="cls-1" d="M-1985.88,2125.77H-1987v-8.61h1.16Zm-.31-9.45h-.8l1.07-1.69h1.29Z" transform="translate(2017.5 -1800.63)"/><path class="cls-1" d="M-1974.07,2125.77h-6.36v-8.61h6.28v1h-5.11v2.64h4.71v1h-4.71v2.88h5.19Z" transform="translate(2017.5 -1800.63)"/><path class="cls-1" d="M-1967.35,2119.68a1.88,1.88,0,0,0-2.13-1.75c-.74,0-2,.2-2,1.51,0,.73.51,1,1,1.09l2.46.56a2.25,2.25,0,0,1,2,2.31c0,2-1.89,2.6-3.37,2.6a3.4,3.4,0,0,1-2.6-.83,2.66,2.66,0,0,1-.88-2.18h1.09c0,1.56,1.28,2,2.38,2,.84,0,2.25-.21,2.25-1.45,0-.9-.42-1.19-1.83-1.52l-1.76-.41a2.07,2.07,0,0,1-1.84-2,2.64,2.64,0,0,1,3-2.66c3,0,3.31,1.8,3.36,2.75Z" transform="translate(2017.5 -1800.63)"/><path class="cls-1" d="M-1965.52,2117.16h7v1h-2.91v7.58h-1.17v-7.58h-2.91Z" transform="translate(2017.5 -1800.63)"/><path class="cls-1" d="M-1957.53,2123.26l-.9,2.51h-1.2l3.24-8.61h1.32l3.12,8.61h-1.28l-.85-2.51Zm3-1-1.27-3.79h0l-1.38,3.79Z" transform="translate(2017.5 -1800.63)"/><path class="cls-1" d="M-1949.58,2125.77h-1.16v-8.61h4c1.42,0,2.83.49,2.83,2.31a2.12,2.12,0,0,1-1.2,2.07c.5.2,1,.42,1,1.62l.07,1.55c0,.49.07.67.43.87v.19H-1945a10.37,10.37,0,0,1-.2-2.16c0-.71-.15-1.53-1.54-1.53h-2.82Zm0-4.69h2.7c.85,0,1.75-.21,1.75-1.49s-1-1.44-1.54-1.44h-2.91Z" transform="translate(2017.5 -1800.63)"/><path class="cls-1" d="M-1940.88,2125.77H-1942v-8.61h1.16Zm-.31-9.45h-.8l1.07-1.69h1.29Z" transform="translate(2017.5 -1800.63)"/><path class="cls-1" d="M-1937.53,2123.26l-.9,2.51h-1.2l3.24-8.61h1.32l3.12,8.61h-1.27l-.85-2.51Zm3-1-1.27-3.79h0l-1.38,3.79Z" transform="translate(2017.5 -1800.63)"/><path class="cls-1" d="M-1925.17,2117.16h1.13v8.61h-1.31l-4.38-7h0v7h-1.13v-8.61h1.38l4.31,7h0Z" transform="translate(2017.5 -1800.63)"/><path class="cls-2" d="M-2014.13,2140.77H-2017l4.61-12.93h3.11l4.56,12.93h-2.94l-.83-2.66h-4.77Zm1.62-4.9h3.3l-1.6-5.11h0Z" transform="translate(2017.5 -1800.63)"/><path class="cls-2" d="M-1994.81,2127.84h2.52v12.93h-2.7l-5.28-9.22h0v9.22h-2.52v-12.93h2.84l5.13,9h0Z" transform="translate(2017.5 -1800.63)"/><path class="cls-2" d="M-1979.08,2136.25c0,3.4-2.05,4.86-5.31,4.86a5.58,5.58,0,0,1-4.11-1.56,4.71,4.71,0,0,1-1-3.14v-8.57h2.75v8.39c0,1.8,1,2.6,2.31,2.6,1.85,0,2.61-.9,2.61-2.47v-8.52h2.75Z" transform="translate(2017.5 -1800.63)"/><path class="cls-2" d="M-1968.28,2127.84h2.52v12.93h-2.7l-5.28-9.22h0v9.22h-2.52v-12.93h2.84l5.13,9h0Z" transform="translate(2017.5 -1800.63)"/><path class="cls-2" d="M-1954.65,2132.07a2.64,2.64,0,0,0-2.87-2.23c-1.29,0-3.2.87-3.2,4.52,0,2.32.92,4.41,3.2,4.41a2.76,2.76,0,0,0,2.87-2.43h2.7a5.38,5.38,0,0,1-5.62,4.77c-3.44,0-5.91-2.32-5.91-6.79s2.61-6.82,5.94-6.82c3.88,0,5.44,2.67,5.59,4.57Z" transform="translate(2017.5 -1800.63)"/><path class="cls-2" d="M-1947.15,2140.77h-2.7v-12.93h2.7Z" transform="translate(2017.5 -1800.63)"/><path class="cls-2" d="M-1938.73,2127.5c1.72,0,6.22.74,6.22,6.81s-4.5,6.8-6.22,6.8-6.21-.74-6.21-6.8S-1940.44,2127.5-1938.73,2127.5Zm0,11.33c1.46,0,3.52-.9,3.52-4.52s-2.06-4.52-3.52-4.52-3.51.9-3.51,4.52S-1940.18,2138.83-1938.73,2138.83Z" transform="translate(2017.5 -1800.63)"/><path class="cls-2" d="M-1928.16,2136.79c0,.72.38,2.09,2.74,2.09,1.27,0,2.7-.31,2.7-1.67,0-1-1-1.28-2.34-1.61l-1.39-.32c-2.09-.49-4.11-1-4.11-3.8,0-1.44.78-4,5-4,4,0,5,2.59,5,4.18h-2.6c-.07-.58-.29-1.95-2.64-1.95-1,0-2.25.38-2.25,1.55,0,1,.82,1.23,1.36,1.35l3.15.78c1.77.43,3.39,1.15,3.39,3.47,0,3.89-4,4.23-5.1,4.23-4.71,0-5.52-2.72-5.52-4.32Z" transform="translate(2017.5 -1800.63)"/><path class="cls-3" d="M-1997,2144.63v-.4h.62v-.66c0-.65.24-1.07.88-1.07a2.38,2.38,0,0,1,.39,0v.44a1.35,1.35,0,0,0-.28,0c-.5,0-.51.41-.51.79v.51h.79v.4h-.79v3.74h-.48v-3.74Z" transform="translate(2017.5 -1800.63)"/><path class="cls-3" d="M-1993.45,2148.37h-.48v-4.14h.48v.77h0a1.25,1.25,0,0,1,1.35-.88v.52c-1.08,0-1.37.77-1.37,1.7Z" transform="translate(2017.5 -1800.63)"/><path class="cls-3" d="M-1988.94,2146a2.73,2.73,0,0,0,.63-.14c.16-.07.17-.29.17-.43,0-.49-.28-.84-1-.84s-1.12.21-1.2.93h-.49c.07-1,.8-1.36,1.7-1.36s1.5.32,1.5,1.28v2.26c0,.37.1.46.51.32v.37a1.14,1.14,0,0,1-.38.08.71.71,0,0,1-.21,0c-.32,0-.38-.33-.39-.62a2,2,0,0,1-1.54.69,1.23,1.23,0,0,1-1.38-1.19c0-.7.48-1.12,1.44-1.25Zm.8.24a4.06,4.06,0,0,1-1.24.23c-.72.05-1.16.32-1.16.88a.79.79,0,0,0,.89.74c.76,0,1.51-.37,1.51-1.21Z" transform="translate(2017.5 -1800.63)"/><path class="cls-3" d="M-1985.54,2148.37h-.48v-4.14h.48v.62h0a1.43,1.43,0,0,1,1.28-.73,1.14,1.14,0,0,1,1.22.8,1.43,1.43,0,0,1,1.35-.8c1.13,0,1.29.8,1.29,1.64v2.61h-.48v-2.86c0-.59-.21-1-.89-1a1.16,1.16,0,0,0-.94.47,2.14,2.14,0,0,0-.27,1.12v2.23h-.48v-2.86c0-.59-.21-1-.88-1a1.15,1.15,0,0,0-.94.47,2,2,0,0,0-.27,1.12Z" transform="translate(2017.5 -1800.63)"/><path class="cls-3" d="M-1978.56,2146.41a1.43,1.43,0,0,0,1.39,1.64,1.22,1.22,0,0,0,1.26-1h.53a1.73,1.73,0,0,1-1.79,1.38c-1.32,0-1.9-.94-1.9-2.16a2,2,0,0,1,1.9-2.2c1.14,0,1.83.8,1.83,2.29Zm2.7-.4a1.3,1.3,0,0,0-1.31-1.46,1.46,1.46,0,0,0-1.39,1.46Z" transform="translate(2017.5 -1800.63)"/><path class="cls-3" d="M-1968.1,2142.61h.48v5.76h-.48v-.73h0a1.65,1.65,0,0,1-1.44.84c-1.33,0-1.87-.95-1.87-2.17s.58-2.19,1.85-2.19a1.74,1.74,0,0,1,1.48.77Zm-1.4,1.94c-1,0-1.46.84-1.42,1.88a1.44,1.44,0,0,0,1.42,1.62c.9,0,1.4-.77,1.4-1.77A1.54,1.54,0,0,0-1969.5,2144.55Z" transform="translate(2017.5 -1800.63)"/><path class="cls-3" d="M-1965.68,2146.41a1.43,1.43,0,0,0,1.39,1.64,1.21,1.21,0,0,0,1.26-1h.53a1.72,1.72,0,0,1-1.79,1.38c-1.32,0-1.9-.94-1.9-2.16a2,2,0,0,1,1.9-2.2c1.14,0,1.83.8,1.83,2.29Zm2.71-.4a1.31,1.31,0,0,0-1.32-1.46,1.46,1.46,0,0,0-1.39,1.46Z" transform="translate(2017.5 -1800.63)"/><path class="cls-3" d="M-1960.58,2148.37h-.48v-4.14h.48v.77h0a1.26,1.26,0,0,1,1.36-.88v.52c-1.08,0-1.37.77-1.37,1.7Z" transform="translate(2017.5 -1800.63)"/><path class="cls-3" d="M-1957.83,2146.41a1.43,1.43,0,0,0,1.39,1.64,1.22,1.22,0,0,0,1.26-1h.53a1.73,1.73,0,0,1-1.79,1.38c-1.33,0-1.9-.94-1.9-2.16a2,2,0,0,1,1.9-2.2c1.14,0,1.83.8,1.83,2.29Zm2.7-.4a1.3,1.3,0,0,0-1.31-1.46c-.85,0-1.29.68-1.39,1.46Z" transform="translate(2017.5 -1800.63)"/><path class="cls-3" d="M-1950.3,2145.53a1.22,1.22,0,0,0-1.23-1c-1,0-1.39.89-1.39,1.76s.39,1.74,1.39,1.74a1.21,1.21,0,0,0,1.27-1.11h.51a1.7,1.7,0,0,1-1.78,1.54c-1.32,0-1.91-.95-1.91-2.17a2,2,0,0,1,1.91-2.19,1.55,1.55,0,0,1,1.72,1.41Z" transform="translate(2017.5 -1800.63)"/><path class="cls-3" d="M-1948.35,2148.37v-5.76h.48v2.19a1.77,1.77,0,0,1,1.34-.68,1.45,1.45,0,0,1,1.26.59,1.57,1.57,0,0,1,.21.95v2.71h-.48v-2.7c0-.75-.31-1.12-1.07-1.12a1.21,1.21,0,0,0-1.16.81,2.23,2.23,0,0,0-.1.78v2.23Z" transform="translate(2017.5 -1800.63)"/><path class="cls-3" d="M-1943.73,2146.3a1.93,1.93,0,0,1,1.92-2.18,1.92,1.92,0,0,1,1.92,2.18,1.94,1.94,0,0,1-1.92,2.18A1.93,1.93,0,0,1-1943.73,2146.3Zm1.92-1.75c-1,0-1.41.85-1.41,1.75s.49,1.75,1.41,1.75,1.4-.86,1.4-1.75S-1940.8,2144.55-1941.81,2144.55Z" transform="translate(2017.5 -1800.63)"/><path class="cls-3" d="M40.94,360.37h6.51a0,0,0,0,1,0,0v6.51A4.49,4.49,0,0,1,43,371.37H36.45a0,0,0,0,1,0,0v-6.51A4.49,4.49,0,0,1,40.94,360.37Z"/><path class="cls-4" d="M47.94,376.37h6.51a0,0,0,0,1,0,0v6.51A4.49,4.49,0,0,1,50,387.37H43.45a0,0,0,0,1,0,0v-6.51A4.49,4.49,0,0,1,47.94,376.37Z"/><path class="cls-1" d="M54.94,392.37h6.51a0,0,0,0,1,0,0v6.51A4.49,4.49,0,0,1,57,403.37H50.45a0,0,0,0,1,0,0v-6.51A4.49,4.49,0,0,1,54.94,392.37Z"/><rect class="cls-5" x="0.5" y="180.87" width="92" height="92" rx="10.71"/><polygon class="cls-6" points="21.23 205.16 22.84 210.27 19.55 210.27 21.2 205.16 21.23 205.16"/><path class="cls-6" d="M-1958.17,2040.81c-1.47,0-3.51.9-3.51,4.52s2,4.52,3.51,4.52,3.51-.91,3.51-4.52S-1956.72,2040.81-1958.17,2040.81Zm0,0c-1.47,0-3.51.9-3.51,4.52s2,4.52,3.51,4.52,3.51-.91,3.51-4.52S-1956.72,2040.81-1958.17,2040.81Zm15.35-49.77h-56.36a8.28,8.28,0,0,0-8.29,8.28v56.36a8.28,8.28,0,0,0,8.29,8.28h56.36a8.28,8.28,0,0,0,8.29-8.28v-56.36A8.28,8.28,0,0,0-1942.82,1991Zm-19.48,29.82h2.71v12.94h-2.71Zm-12.66-18h2.76v8.4c0,1.8,1,2.59,2.3,2.59,1.87,0,2.62-.91,2.62-2.46v-8.53h2.75v8.42c0,3.4-2.06,4.86-5.31,4.86a5.55,5.55,0,0,1-4.11-1.57,4.81,4.81,0,0,1-1-3.14Zm-18.12,12.94-.83-2.67h-4.76l-.91,2.67h-2.84l4.6-12.94h3.12l4.55,12.94Zm14.87,18h-2.7l-5.27-9.22h0v9.22h-2.52v-12.94h2.84l5.13,9h0v-9h2.51Zm.47-18h-2.71l-5.27-9.22h0v9.22h-2.52v-12.94h2.86l5.13,9h0v-9h2.53Zm7.77,16a2.77,2.77,0,0,0,2.87-2.44h2.69c-.54,2.82-2.37,4.78-5.62,4.78-3.43,0-5.89-2.32-5.89-6.79s2.6-6.82,5.94-6.82c3.87,0,5.44,2.65,5.57,4.57h-2.69a2.64,2.64,0,0,0-2.87-2.24c-1.3,0-3.2.86-3.2,4.53C-1973.17,2029.7-1972.26,2031.8-1970,2031.8Zm11.8,20.34c-1.72,0-6.22-.74-6.22-6.81s4.5-6.8,6.22-6.8,6.2.74,6.2,6.8S-1956.47,2052.14-1958.17,2052.14Zm13.5,0c-4.73,0-5.54-2.72-5.54-4.32h2.6c0,.72.38,2.09,2.74,2.09,1.28,0,2.7-.31,2.7-1.69,0-1-1-1.28-2.35-1.59l-1.38-.32c-2.08-.49-4.11-1-4.11-3.8,0-1.44.78-4,5-4,4,0,5,2.58,5,4.17h-2.6c-.07-.57-.28-1.94-2.64-1.94-1,0-2.25.38-2.25,1.55,0,1,.82,1.22,1.37,1.35l3.14.77c1.77.43,3.39,1.16,3.39,3.48C-1939.58,2051.8-1943.54,2052.14-1944.67,2052.14Zm-13.5-11.33c-1.47,0-3.51.9-3.51,4.52s2,4.52,3.51,4.52,3.51-.91,3.51-4.52S-1956.72,2040.81-1958.17,2040.81Zm0,0c-1.47,0-3.51.9-3.51,4.52s2,4.52,3.51,4.52,3.51-.91,3.51-4.52S-1956.72,2040.81-1958.17,2040.81Zm0,0c-1.47,0-3.51.9-3.51,4.52s2,4.52,3.51,4.52,3.51-.91,3.51-4.52S-1956.72,2040.81-1958.17,2040.81Z" transform="translate(2017.5 -1800.63)"/><rect class="cls-7" x="7.5" y="253.37" width="12" height="12" rx="1.95"/><rect class="cls-8" x="73.5" y="207.37" width="12" height="12" rx="1.95"/><rect class="cls-6" x="21.5" y="185.37" width="12" height="12" rx="1.95"/><rect class="cls-6" x="61.5" y="253.37" width="12" height="12" rx="1.95"/><path class="cls-1" d="M-2011.39,2249.26l-.9,2.51h-1.2l3.24-8.61h1.32l3.12,8.61h-1.27l-.85-2.51Zm3-1-1.27-3.79h0l-1.38,3.79Z" transform="translate(2017.5 -1800.63)"/><path class="cls-1" d="M-1997.81,2252.44l-1.32-1a4,4,0,0,1-2.21.58c-3.22,0-4.2-2.68-4.2-4.54s1-4.53,4.2-4.53,4.19,2.68,4.19,4.53a4.86,4.86,0,0,1-1.24,3.37l1.17.92Zm-2.57-3.16,1.09.85a3.72,3.72,0,0,0,.94-2.67c0-2-1.12-3.5-3-3.5s-3,1.48-3,3.5,1.12,3.51,3,3.51a2.83,2.83,0,0,0,1.27-.28l-.9-.69Z" transform="translate(2017.5 -1800.63)"/><path class="cls-1" d="M-1989.07,2243.16v5.59a3.13,3.13,0,0,1-3.47,3.25,3,3,0,0,1-3.31-3.1v-5.74h1.17v5.42c0,1.87,1.14,2.39,2.18,2.39a2.1,2.1,0,0,0,2.27-2.37v-5.44Z" transform="translate(2017.5 -1800.63)"/><path class="cls-1" d="M-1985.88,2251.77H-1987v-8.61h1.16Zm-.31-9.45h-.8l1.07-1.69h1.29Z" transform="translate(2017.5 -1800.63)"/><path class="cls-1" d="M-1974.07,2251.77h-6.36v-8.61h6.28v1h-5.11v2.64h4.71v1h-4.71v2.88h5.19Z" transform="translate(2017.5 -1800.63)"/><path class="cls-1" d="M-1967.35,2245.68a1.88,1.88,0,0,0-2.13-1.75c-.74,0-2,.2-2,1.51,0,.73.51,1,1,1.09l2.46.56a2.25,2.25,0,0,1,2,2.31c0,2-1.89,2.6-3.37,2.6a3.4,3.4,0,0,1-2.6-.83,2.66,2.66,0,0,1-.88-2.18h1.09c0,1.56,1.28,2,2.38,2,.84,0,2.25-.21,2.25-1.45,0-.9-.42-1.19-1.83-1.52l-1.76-.41a2.07,2.07,0,0,1-1.84-2,2.64,2.64,0,0,1,3-2.66c3,0,3.31,1.8,3.36,2.75Z" transform="translate(2017.5 -1800.63)"/><path class="cls-1" d="M-1965.52,2243.16h7v1h-2.91v7.58h-1.17v-7.58h-2.91Z" transform="translate(2017.5 -1800.63)"/><path class="cls-1" d="M-1957.53,2249.26l-.9,2.51h-1.2l3.24-8.61h1.32l3.12,8.61h-1.28l-.85-2.51Zm3-1-1.27-3.79h0l-1.38,3.79Z" transform="translate(2017.5 -1800.63)"/><path class="cls-1" d="M-1949.58,2251.77h-1.16v-8.61h4c1.42,0,2.83.49,2.83,2.31a2.12,2.12,0,0,1-1.2,2.07c.5.2,1,.42,1,1.62l.07,1.55c0,.49.07.67.43.87v.19H-1945a10.37,10.37,0,0,1-.2-2.16c0-.71-.15-1.53-1.54-1.53h-2.82Zm0-4.69h2.7c.85,0,1.75-.21,1.75-1.49s-1-1.44-1.54-1.44h-2.91Z" transform="translate(2017.5 -1800.63)"/><path class="cls-1" d="M-1940.88,2251.77H-1942v-8.61h1.16Zm-.31-9.45h-.8l1.07-1.69h1.29Z" transform="translate(2017.5 -1800.63)"/><path class="cls-1" d="M-1937.53,2249.26l-.9,2.51h-1.2l3.24-8.61h1.32l3.12,8.61h-1.27l-.85-2.51Zm3-1-1.27-3.79h0l-1.38,3.79Z" transform="translate(2017.5 -1800.63)"/><path class="cls-1" d="M-1925.17,2243.16h1.13v8.61h-1.31l-4.38-7h0v7h-1.13v-8.61h1.38l4.31,7h0Z" transform="translate(2017.5 -1800.63)"/><path class="cls-2" d="M-2014.13,2266.77H-2017l4.61-12.93h3.11l4.56,12.93h-2.94l-.83-2.66h-4.77Zm1.62-4.9h3.3l-1.6-5.11h0Z" transform="translate(2017.5 -1800.63)"/><path class="cls-2" d="M-1994.81,2253.84h2.52v12.93h-2.7l-5.28-9.22h0v9.22h-2.52v-12.93h2.84l5.13,9h0Z" transform="translate(2017.5 -1800.63)"/><path class="cls-2" d="M-1979.08,2262.25c0,3.4-2.05,4.86-5.31,4.86a5.58,5.58,0,0,1-4.11-1.56,4.71,4.71,0,0,1-1-3.14v-8.57h2.75v8.39c0,1.8,1,2.6,2.31,2.6,1.85,0,2.61-.9,2.61-2.47v-8.52h2.75Z" transform="translate(2017.5 -1800.63)"/><path class="cls-2" d="M-1968.28,2253.84h2.52v12.93h-2.7l-5.28-9.22h0v9.22h-2.52v-12.93h2.84l5.13,9h0Z" transform="translate(2017.5 -1800.63)"/><path class="cls-2" d="M-1954.65,2258.07a2.64,2.64,0,0,0-2.87-2.23c-1.29,0-3.2.87-3.2,4.52,0,2.32.92,4.41,3.2,4.41a2.76,2.76,0,0,0,2.87-2.43h2.7a5.38,5.38,0,0,1-5.62,4.77c-3.44,0-5.91-2.32-5.91-6.79s2.61-6.82,5.94-6.82c3.88,0,5.44,2.67,5.59,4.57Z" transform="translate(2017.5 -1800.63)"/><path class="cls-2" d="M-1947.15,2266.77h-2.7v-12.93h2.7Z" transform="translate(2017.5 -1800.63)"/><path class="cls-2" d="M-1938.73,2253.5c1.72,0,6.22.74,6.22,6.81s-4.5,6.8-6.22,6.8-6.21-.74-6.21-6.8S-1940.44,2253.5-1938.73,2253.5Zm0,11.33c1.46,0,3.52-.9,3.52-4.52s-2.06-4.52-3.52-4.52-3.51.9-3.51,4.52S-1940.18,2264.83-1938.73,2264.83Z" transform="translate(2017.5 -1800.63)"/><path class="cls-2" d="M-1928.16,2262.79c0,.72.38,2.09,2.74,2.09,1.27,0,2.7-.31,2.7-1.67,0-1-1-1.28-2.34-1.61l-1.39-.32c-2.09-.49-4.11-1-4.11-3.8,0-1.44.78-4,5-4,4,0,5,2.59,5,4.18h-2.6c-.07-.58-.29-1.95-2.64-1.95-1,0-2.25.38-2.25,1.55,0,1,.82,1.23,1.36,1.35l3.15.78c1.77.43,3.39,1.15,3.39,3.47,0,3.89-4,4.23-5.1,4.23-4.71,0-5.52-2.72-5.52-4.32Z" transform="translate(2017.5 -1800.63)"/><path class="cls-3" d="M-1997,2270.63v-.4h.62v-.66c0-.65.24-1.07.88-1.07a2.38,2.38,0,0,1,.39,0v.44a1.35,1.35,0,0,0-.28,0c-.5,0-.51.41-.51.79v.51h.79v.4h-.79v3.74h-.48v-3.74Z" transform="translate(2017.5 -1800.63)"/><path class="cls-3" d="M-1993.45,2274.37h-.48v-4.14h.48v.77h0a1.25,1.25,0,0,1,1.35-.88v.52c-1.08,0-1.37.77-1.37,1.7Z" transform="translate(2017.5 -1800.63)"/><path class="cls-3" d="M-1988.94,2272a2.73,2.73,0,0,0,.63-.14c.16-.07.17-.29.17-.43,0-.49-.28-.84-1-.84s-1.12.21-1.2.93h-.49c.07-1,.8-1.36,1.7-1.36s1.5.32,1.5,1.28v2.26c0,.37.1.46.51.32v.37a1.14,1.14,0,0,1-.38.08.71.71,0,0,1-.21,0c-.32,0-.38-.33-.39-.62a2,2,0,0,1-1.54.69,1.23,1.23,0,0,1-1.38-1.19c0-.7.48-1.12,1.44-1.25Zm.8.24a4.06,4.06,0,0,1-1.24.23c-.72.05-1.16.32-1.16.88a.79.79,0,0,0,.89.74c.76,0,1.51-.37,1.51-1.21Z" transform="translate(2017.5 -1800.63)"/><path class="cls-3" d="M-1985.54,2274.37h-.48v-4.14h.48v.62h0a1.43,1.43,0,0,1,1.28-.73,1.14,1.14,0,0,1,1.22.8,1.43,1.43,0,0,1,1.35-.8c1.13,0,1.29.8,1.29,1.64v2.61h-.48v-2.86c0-.59-.21-1-.89-1a1.16,1.16,0,0,0-.94.47,2.14,2.14,0,0,0-.27,1.12v2.23h-.48v-2.86c0-.59-.21-1-.88-1a1.15,1.15,0,0,0-.94.47,2,2,0,0,0-.27,1.12Z" transform="translate(2017.5 -1800.63)"/><path class="cls-3" d="M-1978.56,2272.41a1.43,1.43,0,0,0,1.39,1.64,1.22,1.22,0,0,0,1.26-1h.53a1.73,1.73,0,0,1-1.79,1.38c-1.32,0-1.9-.94-1.9-2.16a2,2,0,0,1,1.9-2.2c1.14,0,1.83.8,1.83,2.29Zm2.7-.4a1.3,1.3,0,0,0-1.31-1.46,1.46,1.46,0,0,0-1.39,1.46Z" transform="translate(2017.5 -1800.63)"/><path class="cls-3" d="M-1968.1,2268.61h.48v5.76h-.48v-.73h0a1.65,1.65,0,0,1-1.44.84c-1.33,0-1.87-.95-1.87-2.17s.58-2.19,1.85-2.19a1.74,1.74,0,0,1,1.48.77Zm-1.4,1.94c-1,0-1.46.84-1.42,1.88a1.44,1.44,0,0,0,1.42,1.62c.9,0,1.4-.77,1.4-1.77A1.54,1.54,0,0,0-1969.5,2270.55Z" transform="translate(2017.5 -1800.63)"/><path class="cls-3" d="M-1965.68,2272.41a1.43,1.43,0,0,0,1.39,1.64,1.21,1.21,0,0,0,1.26-1h.53a1.72,1.72,0,0,1-1.79,1.38c-1.32,0-1.9-.94-1.9-2.16a2,2,0,0,1,1.9-2.2c1.14,0,1.83.8,1.83,2.29Zm2.71-.4a1.31,1.31,0,0,0-1.32-1.46,1.46,1.46,0,0,0-1.39,1.46Z" transform="translate(2017.5 -1800.63)"/><path class="cls-3" d="M-1960.58,2274.37h-.48v-4.14h.48v.77h0a1.26,1.26,0,0,1,1.36-.88v.52c-1.08,0-1.37.77-1.37,1.7Z" transform="translate(2017.5 -1800.63)"/><path class="cls-3" d="M-1957.83,2272.41a1.43,1.43,0,0,0,1.39,1.64,1.22,1.22,0,0,0,1.26-1h.53a1.73,1.73,0,0,1-1.79,1.38c-1.33,0-1.9-.94-1.9-2.16a2,2,0,0,1,1.9-2.2c1.14,0,1.83.8,1.83,2.29Zm2.7-.4a1.3,1.3,0,0,0-1.31-1.46c-.85,0-1.29.68-1.39,1.46Z" transform="translate(2017.5 -1800.63)"/><path class="cls-3" d="M-1950.3,2271.53a1.22,1.22,0,0,0-1.23-1c-1,0-1.39.89-1.39,1.76s.39,1.74,1.39,1.74a1.21,1.21,0,0,0,1.27-1.11h.51a1.7,1.7,0,0,1-1.78,1.54c-1.32,0-1.91-.95-1.91-2.17a2,2,0,0,1,1.91-2.19,1.55,1.55,0,0,1,1.72,1.41Z" transform="translate(2017.5 -1800.63)"/><path class="cls-3" d="M-1948.35,2274.37v-5.76h.48v2.19a1.77,1.77,0,0,1,1.34-.68,1.45,1.45,0,0,1,1.26.59,1.57,1.57,0,0,1,.21.95v2.71h-.48v-2.7c0-.75-.31-1.12-1.07-1.12a1.21,1.21,0,0,0-1.16.81,2.23,2.23,0,0,0-.1.78v2.23Z" transform="translate(2017.5 -1800.63)"/><path class="cls-3" d="M-1943.73,2272.3a1.93,1.93,0,0,1,1.92-2.18,1.92,1.92,0,0,1,1.92,2.18,1.94,1.94,0,0,1-1.92,2.18A1.93,1.93,0,0,1-1943.73,2272.3Zm1.92-1.75c-1,0-1.41.85-1.41,1.75s.49,1.75,1.41,1.75,1.4-.86,1.4-1.75S-1940.8,2270.55-1941.81,2270.55Z" transform="translate(2017.5 -1800.63)"/><rect class="cls-5" x="0.5" y="494.87" width="92" height="92" rx="10.71"/><polygon class="cls-6" points="21.23 519.16 22.84 524.27 19.55 524.27 21.2 519.16 21.23 519.16"/><path class="cls-6" d="M-1958.17,2354.81c-1.47,0-3.51.9-3.51,4.52s2,4.52,3.51,4.52,3.51-.91,3.51-4.52S-1956.72,2354.81-1958.17,2354.81Zm0,0c-1.47,0-3.51.9-3.51,4.52s2,4.52,3.51,4.52,3.51-.91,3.51-4.52S-1956.72,2354.81-1958.17,2354.81Zm15.35-49.77h-56.36a8.28,8.28,0,0,0-8.29,8.28v56.36a8.28,8.28,0,0,0,8.29,8.28h56.36a8.28,8.28,0,0,0,8.29-8.28v-56.36A8.28,8.28,0,0,0-1942.82,2305Zm-19.48,29.82h2.71v12.94h-2.71Zm-12.66-18h2.76v8.4c0,1.8,1,2.59,2.3,2.59,1.87,0,2.62-.91,2.62-2.46v-8.53h2.75v8.42c0,3.4-2.06,4.86-5.31,4.86a5.55,5.55,0,0,1-4.11-1.57,4.81,4.81,0,0,1-1-3.14Zm-18.12,12.94-.83-2.67h-4.76l-.91,2.67h-2.84l4.6-12.94h3.12l4.55,12.94Zm14.87,18h-2.7l-5.27-9.22h0v9.22h-2.52v-12.94h2.84l5.13,9h0v-9h2.51Zm.47-18h-2.71l-5.27-9.22h0v9.22h-2.52v-12.94h2.86l5.13,9h0v-9h2.53Zm7.77,16a2.77,2.77,0,0,0,2.87-2.44h2.69c-.54,2.82-2.37,4.78-5.62,4.78-3.43,0-5.89-2.32-5.89-6.79s2.6-6.82,5.94-6.82c3.87,0,5.44,2.65,5.57,4.57h-2.69a2.64,2.64,0,0,0-2.87-2.24c-1.3,0-3.2.86-3.2,4.53C-1973.17,2343.7-1972.26,2345.8-1970,2345.8Zm11.8,20.34c-1.72,0-6.22-.74-6.22-6.81s4.5-6.8,6.22-6.8,6.2.74,6.2,6.8S-1956.47,2366.14-1958.17,2366.14Zm13.5,0c-4.73,0-5.54-2.72-5.54-4.32h2.6c0,.72.38,2.09,2.74,2.09,1.28,0,2.7-.31,2.7-1.69,0-1-1-1.28-2.35-1.59l-1.38-.32c-2.08-.49-4.11-1-4.11-3.8,0-1.44.78-4,5-4,4,0,5,2.58,5,4.17h-2.6c-.07-.57-.28-1.94-2.64-1.94-1,0-2.25.38-2.25,1.55,0,1,.82,1.22,1.37,1.35l3.14.77c1.77.43,3.39,1.16,3.39,3.48C-1939.58,2365.8-1943.54,2366.14-1944.67,2366.14Zm-13.5-11.33c-1.47,0-3.51.9-3.51,4.52s2,4.52,3.51,4.52,3.51-.91,3.51-4.52S-1956.72,2354.81-1958.17,2354.81Zm0,0c-1.47,0-3.51.9-3.51,4.52s2,4.52,3.51,4.52,3.51-.91,3.51-4.52S-1956.72,2354.81-1958.17,2354.81Zm0,0c-1.47,0-3.51.9-3.51,4.52s2,4.52,3.51,4.52,3.51-.91,3.51-4.52S-1956.72,2354.81-1958.17,2354.81Z" transform="translate(2017.5 -1800.63)"/><rect class="cls-7" x="7.5" y="567.37" width="12" height="12" rx="1.95"/><rect class="cls-8" x="73.5" y="521.37" width="12" height="12" rx="1.95"/><rect class="cls-6" x="21.5" y="499.37" width="12" height="12" rx="1.95"/><rect class="cls-6" x="61.5" y="567.37" width="12" height="12" rx="1.95"/></svg>